# xmcd CD database file
#
# Track frame offsets:
#	150
#	41529
#	77894
#	138277
#	172289
#	222929
#	282776
#	320664
#
# Disc length: 4605 seconds
#
# Revision: 0
# Processed by: cddbd v1.5.2PL0 Copyright (c) Steve Scherf et al.
# Submitted via: CDex 1.51
#
DISCID=7611fb08
DTITLE=e.s.t. (Esbjörn Svensson Trio) - 2001 Jazzfest Berlin
DYEAR=2001
DGENRE=Jazz
TTITLE0=e.s.t. (Esbjörn Svensson Trio) - The Rube Thing
TTITLE1=e.s.t. (Esbjörn Svensson Trio) - Somewhere Else Before
TTITLE2=e.s.t. (Esbjörn Svensson Trio) - Definition of a Dog
TTITLE3=e.s.t. (Esbjörn Svensson Trio) - From Gagarin's Point of View
TTITLE4=e.s.t. (Esbjörn Svensson Trio) - Bowling
TTITLE5=e.s.t. (Esbjörn Svensson Trio) - Dodge the Dodo
TTITLE6=e.s.t. (Esbjörn Svensson Trio) - Fingertrip
TTITLE7=e.s.t. (Esbjörn Svensson Trio) - Silly walk
EXTD=YEAR: 2001
EXTT0=
EXTT1=
EXTT2=
EXTT3=
EXTT4=
EXTT5=
EXTT6=
EXTT7=
PLAYORDER=
